<?xml version="1.0" standalone="no"?>
<!DOCTYPE svg PUBLIC "-//W3C//DTD SVG 20010904//EN"
 "http://www.w3.org/TR/2001/REC-SVG-20010904/DTD/svg10.dtd">
<svg version="1.0" xmlns="http://www.w3.org/2000/svg"
 width="453.000000pt" height="453.000000pt" viewBox="0 0 453.000000 453.000000"
 preserveAspectRatio="xMidYMid meet">
<metadata>
Created by potrace 1.14, written by Peter Selinger 2001-2017
</metadata>
<g transform="translate(0.000000,453.000000) scale(0.100000,-0.100000)"
fill="#000000" stroke="none">
<path d="M2544 4495 c-75 -32 -117 -100 -130 -209 -3 -22 -12 -55 -20 -74 -7
-19 -11 -38 -8 -44 3 -5 -3 -4 -15 4 -12 7 -21 17 -21 23 0 5 -5 3 -10 -5 -5
-8 -10 -34 -10 -58 0 -27 -10 -62 -27 -95 -15 -29 -35 -69 -45 -91 -16 -35
-16 -37 -1 -25 15 13 15 12 5 -7 -17 -33 -22 -74 -9 -71 7 1 12 -8 11 -20 -1
-42 13 -24 20 25 8 58 49 155 61 145 4 -5 5 -3 1 4 -3 7 4 35 18 62 23 47 21
57 -7 52 -5 -1 -6 3 -2 8 3 6 12 8 20 5 8 -3 19 5 27 21 l14 26 0 -35 c0 -19
-2 -33 -5 -31 -4 2 -6 -14 -6 -35 -1 -46 12 -43 21 5 3 19 10 35 15 35 5 0 6
7 3 15 -4 8 -2 15 4 15 14 0 44 -130 46 -197 0 -13 3 -23 7 -23 4 0 1 -13 -7
-30 -20 -38 -30 -38 -38 1 -9 47 -7 77 7 99 10 17 9 22 -2 29 -8 5 -11 16 -8
25 14 36 -11 13 -28 -26 -10 -24 -20 -37 -23 -30 -6 19 -22 14 -22 -6 0 -10
-3 -22 -6 -25 -12 -11 -8 -122 5 -142 10 -18 11 -16 6 13 -5 24 -3 32 8 32 8
0 18 8 22 18 5 14 4 15 -6 5 -21 -21 -30 -15 -25 15 2 15 5 37 5 48 1 13 9 24
21 27 16 4 20 0 20 -19 0 -18 -4 -22 -17 -18 -17 5 -17 5 -1 -9 10 -8 15 -17
11 -20 -3 -4 -1 -7 5 -7 6 0 14 -20 18 -45 3 -25 9 -44 11 -41 8 7 30 -17 36
-40 3 -10 4 5 3 34 -1 29 2 56 7 59 6 3 7 2 4 -4 -3 -5 3 -26 13 -46 20 -37
28 -64 10 -37 -5 8 -12 11 -16 7 -9 -9 16 -38 27 -31 5 3 9 -4 9 -15 0 -25
-22 -28 -40 -6 -7 9 -15 13 -18 11 -2 -3 3 -12 12 -21 9 -9 13 -21 10 -27 -4
-6 -2 -8 4 -4 6 3 13 2 17 -4 8 -13 45 -13 45 0 0 6 -5 10 -10 10 -7 0 -7 6
-2 18 5 9 7 23 5 30 -7 20 12 14 35 -11 12 -13 19 -27 15 -32 -5 -4 -2 -5 4
-1 13 7 85 -60 90 -83 5 -22 -78 -12 -124 15 -47 27 -64 25 -56 -6 8 -30 21
-33 15 -4 l-5 26 40 -26 c47 -32 116 -42 158 -25 17 7 35 11 40 10 6 0 2 5 -8
13 -16 13 -15 14 15 19 22 3 39 -1 51 -11 16 -14 17 -14 12 0 -4 11 5 18 37
26 l43 11 -42 -3 c-24 -2 -45 0 -48 5 -3 5 -15 3 -26 -4 -13 -8 -22 -9 -27 -2
-4 6 -20 10 -37 9 -31 0 -78 23 -71 35 7 11 -12 36 -21 28 -4 -5 -1 -12 7 -17
13 -9 13 -10 0 -10 -8 0 -30 14 -49 30 -28 25 -32 34 -27 57 l7 28 -21 -30
-21 -30 5 27 c3 17 -1 28 -10 32 -8 3 -14 17 -14 31 0 14 -4 25 -9 25 -5 0 -9
10 -9 23 -1 38 -30 172 -46 210 -8 21 -20 37 -25 37 -6 0 -11 5 -11 11 0 5 4
8 8 5 8 -5 7 35 -2 118 -5 49 30 133 68 164 27 20 106 29 106 12 0 -5 9 -6 21
-3 19 5 20 2 18 -38 -3 -45 -26 -76 -92 -122 -25 -18 -42 -79 -28 -102 3 -5 6
-15 7 -22 3 -15 38 -66 59 -83 13 -11 13 -15 2 -29 -24 -28 -38 -77 -34 -117
4 -38 4 -38 5 8 1 26 7 50 12 53 6 3 10 14 10 24 0 32 21 42 52 23 15 -9 28
-20 28 -25 0 -4 4 -6 10 -2 11 7 51 -25 44 -37 -3 -4 2 -5 10 -2 16 6 98 -54
91 -67 -9 -14 6 -37 23 -35 12 2 16 11 14 32 -5 48 -34 75 -128 124 -53 27
-88 51 -86 59 2 8 -3 11 -12 8 -20 -8 -54 35 -62 78 -6 34 17 95 36 95 6 0 10
6 10 14 0 8 6 21 13 28 22 24 45 73 42 90 -2 10 1 20 6 24 5 3 10 0 10 -5 1
-6 2 -16 3 -23 0 -6 7 -13 15 -16 9 -3 11 0 5 9 -6 11 -3 10 11 -1 11 -9 16
-10 11 -2 -4 7 -2 12 6 12 8 0 7 4 -4 11 -10 5 -20 10 -22 10 -9 0 -71 62 -69
68 3 12 -84 8 -113 -4z m298 -539 c11 -20 10 -20 -8 -6 -10 8 -25 21 -32 28
-7 6 -18 12 -23 12 -6 0 -7 4 -4 10 8 13 52 -16 67 -44z m-127 -286 c4 -6 11
-8 16 -5 5 4 9 1 9 -4 0 -15 -13 -14 -36 4 -10 8 -14 15 -7 15 6 0 15 -5 18
-10z"/>
<path d="M2736 4445 c4 -8 11 -15 16 -15 6 0 5 6 -2 15 -7 8 -14 15 -16 15 -2
0 -1 -7 2 -15z"/>
<path d="M2562 4430 c-15 -25 -15 -27 2 -33 10 -4 12 0 9 14 -3 11 0 19 6 19
7 0 9 -5 5 -12 -4 -7 -3 -8 5 -4 9 6 9 11 0 22 -14 17 -12 18 -27 -6z"/>
<path d="M2355 4391 c-3 -6 -10 -9 -14 -7 -15 9 -73 -34 -67 -50 3 -8 2 -12
-4 -9 -11 7 -33 -32 -25 -45 3 -6 -1 -7 -9 -4 -10 4 -16 1 -16 -9 0 -8 7 -18
16 -21 21 -8 26 -8 20 2 -6 11 36 99 49 102 6 1 9 7 7 12 -2 6 4 8 12 5 9 -4
18 -2 21 3 3 5 14 7 24 5 10 -2 24 1 32 7 11 8 11 9 -2 5 -9 -3 -21 -1 -27 5
-6 6 -12 6 -17 -1z"/>
<path d="M2539 4368 c-1 -13 -1 -26 0 -30 0 -5 -4 -8 -10 -8 -5 0 -7 -4 -4
-10 3 -5 1 -10 -4 -10 -6 0 -11 -7 -11 -15 0 -9 -6 -12 -17 -8 -12 5 -15 2
-10 -10 3 -9 1 -19 -5 -23 -6 -4 -8 -3 -4 4 3 6 2 13 -4 17 -5 3 -10 -3 -10
-14 0 -12 4 -21 8 -21 14 0 69 65 77 91 4 13 12 27 18 30 11 8 1 29 -14 29 -5
0 -10 -10 -10 -22z"/>
<path d="M2350 4290 c-9 -6 -10 -10 -3 -10 6 0 15 5 18 10 8 12 4 12 -15 0z"/>
<path d="M2644 4279 c-19 -22 -19 -22 4 -8 12 8 22 17 22 21 0 12 -6 9 -26
-13z"/>
<path d="M2778 4279 c-5 -3 4 -6 21 -7 17 0 33 2 35 6 5 9 -42 9 -56 1z"/>
<path d="M2850 4273 c0 -6 8 -17 18 -24 16 -13 16 -13 2 6 -8 11 -16 22 -17
24 -2 2 -3 0 -3 -6z"/>
<path d="M2161 4194 c-12 -15 -21 -35 -21 -45 0 -9 -3 -24 -6 -33 -3 -9 -2
-16 3 -16 5 0 10 6 11 13 2 34 14 71 27 84 8 8 15 16 15 19 0 10 -10 2 -29
-22z"/>
<path d="M2252 4180 c0 -14 2 -19 5 -12 2 6 2 18 0 25 -3 6 -5 1 -5 -13z"/>
<path d="M2260 4135 c1 -11 7 -29 15 -39 13 -17 15 -18 15 -3 0 9 -5 17 -11
17 -5 0 -8 4 -5 8 2 4 1 14 -5 22 -7 12 -9 11 -9 -5z"/>
<path d="M2441 4084 c0 -11 3 -14 6 -6 3 7 2 16 -1 19 -3 4 -6 -2 -5 -13z"/>
<path d="M2205 4070 c10 -11 20 -20 23 -20 3 0 -3 9 -13 20 -10 11 -20 20 -23
20 -3 0 3 -9 13 -20z"/>
<path d="M2940 4046 c0 -3 9 -10 20 -16 11 -6 20 -8 20 -6 0 3 -9 10 -20 16
-11 6 -20 8 -20 6z"/>
<path d="M2185 4020 c3 -5 2 -10 -4 -10 -6 0 -8 -8 -5 -17 4 -13 0 -11 -12 5
-17 23 -34 29 -34 11 0 -5 5 -7 11 -3 8 5 8 1 0 -14 -12 -23 -5 -31 21 -27 11
2 18 -7 22 -31 4 -18 12 -36 18 -40 7 -5 8 -3 3 5 -11 19 -8 92 4 104 17 17
13 27 -10 27 -11 0 -17 -4 -14 -10z"/>
<path d="M2112 3993 c2 -4 -7 -24 -20 -44 -14 -24 -24 -58 -27 -100 l-4 -64 9
55 c6 30 21 76 35 102 14 28 20 50 14 54 -5 3 -8 2 -7 -3z"/>
<path d="M2330 3961 c0 -6 5 -13 10 -16 6 -3 10 1 10 9 0 9 -4 16 -10 16 -5 0
-10 -4 -10 -9z"/>
<path d="M2143 3928 c3 -9 1 -19 -6 -22 -9 -3 -9 -5 1 -5 6 -1 12 -13 12 -27
0 -22 19 -54 33 -54 4 0 3 36 -1 66 -1 6 -12 22 -24 35 -13 15 -19 18 -15 7z"/>
<path d="M2311 3869 c-6 -18 -11 -48 -10 -68 0 -29 3 -24 15 28 15 71 13 90
-5 40z"/>
<path d="M2584 3873 c0 -16 7 -30 14 -30 15 0 15 6 -2 36 l-13 24 1 -30z"/>
<path d="M2650 3896 c0 -8 50 -44 54 -38 2 4 -9 15 -25 24 -16 10 -29 16 -29
14z"/>
<path d="M3132 3869 c-1 -16 -1 -29 2 -29 7 0 13 50 7 55 -4 2 -8 -10 -9 -26z"/>
<path d="M2200 3868 c0 -4 7 -8 15 -8 8 0 15 4 15 8 0 5 -7 9 -15 9 -8 0 -15
-4 -15 -9z"/>
<path d="M2114 3837 c1 -7 6 -18 10 -26 6 -10 5 -12 -2 -7 -7 4 -12 3 -12 -3
0 -5 5 -11 12 -13 6 -2 17 -19 23 -38 15 -44 29 -48 59 -15 31 33 45 15 18
-23 -11 -15 -23 -38 -27 -50 -5 -17 -12 -22 -26 -19 -10 3 -17 1 -14 -3 3 -5
0 -12 -5 -15 -15 -9 -51 25 -48 44 1 9 -3 26 -10 38 -7 12 -13 33 -14 47 -1
15 -7 26 -14 26 -6 0 -16 10 -22 23 -8 18 -9 12 -6 -31 5 -52 19 -102 29 -102
2 0 1 11 -4 23 -5 13 -6 29 -1 36 5 8 12 -5 20 -37 6 -28 18 -56 26 -63 7 -6
11 -16 7 -22 -3 -5 -1 -7 5 -3 6 3 13 2 17 -4 3 -5 -2 -10 -12 -11 -20 -1 28
-25 62 -30 31 -6 51 -34 69 -100 21 -73 12 -91 -43 -88 -20 1 -41 1 -48 0 -23
-2 -61 -46 -70 -81 -19 -69 3 -134 31 -94 16 21 16 22 38 -26 l17 -35 0 29 c1
16 3 27 6 24 9 -9 15 -103 7 -114 -9 -14 -76 -44 -97 -44 -9 0 -13 -4 -10 -10
3 -5 26 -8 50 -5 31 3 45 1 45 -8 0 -21 -57 -111 -99 -157 -66 -72 -73 -89
-52 -136 23 -51 55 -81 129 -124 34 -19 63 -43 65 -52 5 -17 -12 -54 -46 -102
-11 -14 -20 -45 -21 -68 l-3 -43 -355 -3 -356 -2 0 127 c0 71 -1 133 -2 138
-1 6 -1 15 0 20 1 6 2 30 1 55 0 25 0 68 0 95 3 167 1 304 -6 315 -5 7 -4 11
1 7 7 -4 10 101 4 123 -1 3 -1 29 0 58 l1 52 -273 1 c-298 1 -310 1 -318 -12
-3 -4 -7 -450 -8 -990 -1 -540 -5 -986 -8 -990 -3 -5 -29 9 -58 31 -29 22 -58
40 -65 40 -7 0 -10 4 -6 9 3 5 0 13 -6 17 -7 4 -9 3 -6 -3 4 -6 -4 -14 -18
-17 -25 -6 -25 -7 -9 -39 39 -73 54 -193 34 -266 -10 -37 -14 -41 -43 -42 -30
-2 -30 -2 -4 -6 34 -5 34 -13 1 -63 -21 -32 -30 -38 -40 -29 -8 6 -14 8 -14 4
0 -4 -6 -3 -12 2 -7 5 -20 9 -28 8 -8 0 -32 10 -53 22 -21 13 -42 21 -47 18
-6 -4 -10 -2 -10 3 0 5 -7 9 -15 9 -20 0 -20 1 18 -27 18 -14 26 -16 18 -7
-19 24 1 21 27 -3 12 -11 26 -20 31 -20 6 0 15 -10 22 -21 8 -15 13 -18 19
-10 5 9 9 9 13 -3 4 -9 16 -16 27 -16 25 0 27 -26 2 -32 -22 -6 -44 1 -37 13
4 5 -1 6 -10 3 -9 -4 -22 1 -31 12 -14 18 -14 18 -4 -3 9 -21 6 -24 -37 -45
-37 -18 -62 -42 -111 -108 -64 -85 -48 -73 38 29 48 56 93 86 116 77 8 -3 13
-2 10 3 -3 5 1 11 9 15 20 7 20 -20 0 -31 -10 -6 -11 -13 -5 -23 7 -10 10 -11
10 -3 0 9 13 12 40 9 22 -2 40 0 40 6 0 5 4 6 10 3 16 -10 12 -22 -9 -28 -11
-2 -25 0 -32 7 -9 8 -11 7 -6 -6 4 -10 2 -18 -4 -18 -6 0 -8 -4 -5 -9 3 -5 -1
-14 -9 -21 -12 -10 -16 -9 -19 1 -13 40 -15 41 -12 4 3 -34 -22 -115 -43 -137
-3 -4 -24 2 -46 12 -22 10 -49 19 -60 20 -33 4 -81 -1 -65 -6 51 -17 88 -38
100 -57 12 -20 12 -21 -3 -8 -22 18 -21 9 4 -40 20 -40 21 -41 41 -22 12 10
18 12 14 6 -4 -7 -2 -13 3 -13 6 0 11 -9 11 -20 0 -11 5 -20 10 -20 6 0 10 -5
10 -11 0 -5 -4 -7 -10 -4 -5 3 -10 -1 -10 -9 0 -9 6 -15 13 -13 7 1 11 -8 11
-23 -2 -23 -1 -23 12 -6 16 23 11 115 -7 126 -8 5 -4 10 11 15 12 4 25 3 29
-1 10 -14 51 -16 51 -3 0 6 10 20 21 30 25 21 51 13 70 -22 9 -18 7 -27 -10
-50 -12 -16 -17 -29 -11 -29 5 0 10 4 10 10 0 17 75 58 102 57 14 -1 24 -6 21
-10 -3 -4 1 -14 7 -22 7 -8 11 -15 9 -16 -2 0 -19 -2 -38 -5 -31 -4 -32 -3
-20 13 13 16 12 17 -3 5 -22 -18 -30 -55 -17 -89 5 -15 13 -46 15 -68 3 -22 8
-51 11 -65 17 -81 19 -121 7 -116 -13 5 -12 -7 1 -37 4 -9 4 -34 -1 -55 -4
-20 -8 -39 -8 -42 -1 -3 -4 -10 -8 -16 -12 -19 3 -24 65 -24 50 0 58 2 53 16
-3 9 -6 18 -6 20 0 9 -37 3 -49 -8 -10 -11 -11 -8 -6 15 9 34 9 31 6 137 -2
54 -5 78 -10 65 -17 -41 -31 118 -15 167 6 21 34 24 34 4 0 -8 3 -16 8 -18 4
-1 33 -37 64 -78 73 -95 93 -116 150 -162 66 -54 69 -28 11 80 -26 48 -46 87
-44 87 2 0 -5 26 -14 58 -9 32 -18 80 -20 105 -1 26 -6 47 -11 47 -5 0 -8 -3
-7 -7 2 -4 -3 -5 -11 -2 -19 7 -27 42 -11 48 7 2 24 -2 39 -9 15 -8 24 -10 21
-5 -4 6 -1 10 5 10 26 0 59 -53 99 -160 23 -63 50 -129 59 -146 9 -17 27 -49
38 -70 26 -47 25 -57 -13 -114 -47 -72 -48 -80 -8 -80 20 0 35 5 35 12 0 20
50 77 83 95 18 9 45 19 61 21 61 8 106 60 106 124 0 19 -7 60 -15 93 -9 32
-17 66 -18 74 -2 9 -8 25 -14 36 -6 11 -14 36 -17 56 -5 32 -2 38 17 44 12 4
25 7 30 6 4 -1 7 4 7 9 0 14 -27 12 -33 -2 -3 -7 -6 1 -6 18 -1 24 5 32 27 41
l27 12 -29 -2 -28 -2 -2 538 c-2 295 0 538 3 538 16 3 758 5 767 1 9 -2 12
-138 12 -505 0 -276 1 -530 1 -565 l1 -62 483 0 c528 1 594 6 752 58 191 63
346 156 488 294 106 104 186 213 254 346 50 99 110 265 118 328 2 16 4 29 5
29 1 0 3 8 5 17 2 9 8 39 14 68 13 62 14 379 1 435 -5 22 -12 56 -15 75 -3 19
-11 51 -17 70 -7 19 -12 40 -13 45 -2 23 -18 71 -28 83 -5 6 -6 12 -1 12 4 0
3 5 -4 12 -7 7 -12 18 -12 26 0 21 -95 204 -136 264 -136 193 -310 343 -512
440 -135 65 -147 66 -174 15 -11 -22 -26 -47 -34 -54 -7 -8 -17 -19 -21 -26
-26 -39 -110 -82 -183 -91 -19 -3 -57 -8 -85 -12 -27 -4 -73 -8 -102 -8 -28
-1 -55 -4 -59 -8 -13 -14 -26 -8 -22 9 4 20 64 26 86 10 9 -7 11 -6 6 7 -4 11
-1 16 10 16 8 0 20 9 26 20 15 27 28 25 36 -6 4 -15 9 -21 14 -15 3 6 22 12
42 13 22 1 35 6 35 15 0 7 -5 13 -10 13 -12 0 0 14 14 16 5 1 15 2 22 3 8 1 8
5 -3 14 -17 14 -26 42 -10 32 5 -3 10 -2 10 4 0 6 23 33 51 60 46 45 51 54 47
86 -2 19 -1 35 2 35 7 0 5 66 -3 102 -1 9 -20 42 -41 72 -33 48 -50 63 -78 71
-5 2 -9 3 -10 5 -2 1 -12 3 -23 5 -11 2 -21 9 -23 14 -2 6 -8 11 -13 11 -6 0
-7 -4 -4 -10 3 -6 -1 -7 -9 -4 -9 3 -14 10 -11 14 8 13 -43 4 -62 -11 -11 -9
-14 -10 -9 -1 4 6 3 12 -1 12 -5 0 -14 -9 -20 -20 -10 -15 -10 -18 0 -14 8 3
14 -2 14 -10 0 -9 -6 -12 -16 -8 -9 3 -1 -7 17 -23 18 -15 29 -31 24 -34 -5
-3 -6 -15 -1 -26 l8 -20 0 20 c2 32 33 -34 33 -67 0 -15 3 -30 8 -33 5 -3 5
-17 -1 -33 -6 -15 -10 -28 -10 -29 4 -14 -1 -33 -7 -29 -4 2 -9 -4 -9 -15 -3
-36 13 -19 30 34 9 28 18 61 19 72 3 24 -22 105 -32 105 -4 0 -7 19 -6 42 1
31 5 42 19 44 32 5 105 -27 137 -59 35 -36 62 -116 55 -166 -5 -39 -15 -54
-15 -23 0 86 -45 172 -93 177 -30 4 -44 -11 -41 -42 1 -13 2 -46 3 -74 1 -64
21 -56 21 9 0 62 10 78 38 61 37 -23 52 -84 38 -149 -8 -36 -49 -72 -87 -76
-19 -2 -35 -9 -37 -14 -2 -6 -12 -10 -22 -10 -10 0 -22 -4 -25 -10 -10 -16 32
-12 48 5 8 8 17 11 21 8 3 -4 6 -2 6 3 0 5 9 10 19 10 15 0 17 -4 10 -17 -11
-22 -58 -59 -74 -59 -20 0 -85 -62 -85 -81 0 -21 -16 -26 -23 -6 -4 10 -6 10
-6 0 -1 -7 -6 -13 -12 -13 -5 0 -7 5 -3 12 5 7 3 8 -6 3 -20 -12 -61 -15 -54
-3 3 5 9 7 12 4 3 -3 11 3 19 14 8 11 23 20 33 20 10 0 22 4 25 10 3 5 0 7 -8
4 -8 -3 -14 1 -14 10 0 8 5 12 10 9 6 -4 8 0 4 10 -4 12 -2 14 10 10 12 -5 14
-3 8 7 -6 10 -4 12 9 7 9 -4 15 -3 12 1 -3 5 6 25 19 45 25 36 18 61 -10 37
-10 -9 -15 -5 -20 19 -4 17 -14 35 -23 41 -9 5 -12 10 -5 10 20 0 -16 74 -45
91 -23 12 -31 13 -52 2 -14 -7 -24 -20 -22 -29 2 -11 -1 -13 -9 -8 -8 5 -11 2
-7 -8 4 -9 0 -15 -8 -15 -8 0 -13 6 -10 14 3 7 1 13 -3 13 -5 0 -13 -28 -17
-62 -9 -75 -6 -63 -32 -120 -22 -50 -39 -67 -22 -23 5 14 7 25 4 25 -4 0 -1 7
6 15 8 10 15 56 18 118 2 56 9 108 14 115 15 18 97 14 146 -8 23 -10 42 -23
42 -28 0 -10 45 -33 73 -39 35 -6 11 22 -41 48 -68 35 -134 62 -152 63 -8 1
-19 4 -25 7 -14 7 -76 4 -99 -6 -14 -6 -17 -5 -12 3 4 7 1 12 -10 12 -14 0
-14 -3 -4 -15 7 -9 21 -13 31 -10 11 4 19 4 19 1 0 -5 -22 -35 -46 -60 -5 -6
-11 -33 -12 -61 -4 -87 -13 -125 -33 -135 -14 -8 -19 -7 -19 1 0 8 -7 6 -18
-4 -27 -24 -32 -21 -32 18 0 49 -27 76 -82 80 -24 2 -57 10 -74 16 -16 7 -32
13 -37 13 -4 1 -23 14 -43 30 -27 22 -35 34 -31 52 2 13 0 24 -4 24 -5 0 -9 4
-9 9 0 5 8 8 17 7 26 -2 30 44 6 58 -10 6 -22 11 -28 11 -15 0 -26 74 -14 96
8 16 13 18 25 8 10 -8 14 -8 14 0 0 6 -6 12 -12 12 -7 1 -20 2 -28 3 -8 1 -21
-3 -27 -8 -9 -6 -13 -3 -13 8 0 10 -5 14 -11 10 -9 -5 -10 9 -5 50 6 47 5 56
-8 56 -9 0 -16 7 -16 16 0 8 -4 13 -9 9 -6 -3 -14 3 -20 12 -6 10 -11 13 -11
8 0 -6 6 -17 13 -24 10 -10 8 -15 -7 -27 -18 -12 -21 -11 -38 16 -10 17 -18
39 -18 49 0 10 -6 21 -14 24 -8 3 -13 0 -12 -6z m108 -200 c-5 -7 -8 -22 -6
-34 3 -19 -1 -23 -21 -23 -14 0 -25 4 -25 9 0 6 9 8 19 6 14 -2 18 1 14 11 -3
7 -10 11 -15 8 -11 -7 7 32 26 55 9 12 12 11 14 -3 2 -9 -1 -22 -6 -29z m102
-153 c3 -9 2 -23 -3 -31 -7 -14 -10 -13 -20 6 -12 21 -8 41 9 41 4 0 11 -7 14
-16z m-8 -133 c16 -22 51 -54 78 -72 60 -42 76 -64 76 -109 0 -46 -58 -129
-85 -122 -6 1 -11 -8 -12 -20 -1 -11 -7 -26 -13 -32 -8 -8 -9 -6 -4 8 5 13 4
17 -4 12 -20 -12 -13 12 9 32 17 17 18 20 5 25 -9 4 -16 2 -16 -4 0 -6 -4 -7
-10 -4 -5 3 -10 14 -10 23 0 10 3 13 8 7 4 -6 16 -11 27 -10 16 0 20 6 18 28
-1 15 3 27 8 27 6 0 7 5 3 12 -5 8 -10 7 -18 -3 -6 -8 -20 -16 -31 -17 -11 -2
-22 -8 -25 -12 -3 -5 -12 -5 -19 -1 -7 5 -11 13 -7 19 17 28 16 84 -3 127 -19
43 -17 57 5 35 8 -8 15 -6 24 5 10 13 9 15 -8 15 -24 0 -53 36 -45 56 8 22 17
17 49 -25z m647 -30 c-5 -3 -9 -31 -11 -61 -2 -30 -7 -59 -12 -65 -6 -7 -7
-15 -3 -18 10 -11 -17 -36 -33 -30 -8 3 -14 1 -14 -4 0 -6 -9 -20 -20 -33 -11
-12 -17 -27 -14 -31 3 -5 1 -9 -5 -9 -5 0 -8 -11 -7 -25 2 -13 -1 -22 -5 -19
-5 3 -6 -1 -3 -9 3 -8 17 -20 31 -26 28 -13 23 -24 -14 -36 -14 -4 -23 -2 -23
4 0 6 -6 8 -14 5 -7 -3 -16 2 -19 10 -4 9 -15 16 -25 16 -25 0 -31 7 -25 31 3
12 11 18 19 15 7 -3 20 2 29 10 8 9 15 12 15 7 0 -14 20 21 20 36 0 8 -9 2
-21 -13 -11 -14 -25 -23 -31 -20 -7 4 -1 14 13 25 16 13 19 19 9 19 -8 0 -2 7
14 15 15 8 32 12 37 9 5 -3 9 2 9 11 0 10 5 13 12 9 7 -4 8 -3 4 5 -5 8 -15 6
-36 -9 -29 -20 -50 -26 -50 -12 0 16 37 119 52 147 18 33 55 70 78 77 17 6 55
-22 43 -31z m-322 -158 c13 -16 12 -17 -3 -4 -17 13 -22 21 -14 21 2 0 10 -8
17 -17z m109 -45 c0 -19 -18 -43 -25 -36 -4 3 -2 16 5 27 12 24 20 27 20 9z
m-465 -68 c-3 -6 0 -13 9 -16 8 -3 12 -12 9 -21 -4 -10 0 -14 13 -11 17 3 20
-4 15 -42 0 -5 -6 -10 -12 -10 -8 0 -8 4 0 14 8 10 9 16 1 21 -5 3 -10 0 -11
-7 -1 -17 -4 -42 -14 -99 -6 -41 -4 -49 16 -68 12 -11 29 -21 36 -21 7 0 17
-8 22 -18 8 -16 5 -18 -28 -20 -24 -2 -45 4 -58 16 -32 28 -52 121 -40 192 5
32 34 100 42 100 3 0 3 -5 0 -10z m425 -20 c-8 -5 -19 -6 -25 -2 -5 3 -4 -2 4
-12 11 -14 12 -19 2 -25 -6 -4 -15 -20 -19 -34 l-7 -27 -29 19 -28 19 29 31
c29 29 73 53 83 44 2 -2 -2 -8 -10 -13z m322 -108 c9 -10 20 -29 23 -44 6 -23
1 -31 -35 -57 -37 -27 -79 -33 -64 -10 3 5 1 9 -4 9 -6 0 -12 -7 -16 -15 -3
-8 -2 -15 3 -15 4 0 7 -14 6 -32 -2 -30 -1 -31 14 -12 11 13 29 19 58 20 54 0
47 -11 -16 -26 -27 -6 -64 -22 -82 -36 -45 -33 -65 -32 -42 3 9 14 18 33 19
41 2 8 9 19 16 23 7 5 10 9 6 9 -4 0 6 23 23 51 17 27 29 52 26 55 -3 3 -12
-7 -20 -22 l-14 -28 -13 24 c-9 18 -10 25 -1 28 6 2 11 10 11 18 0 9 -4 12
-10 9 -5 -3 -10 -1 -10 5 0 6 -13 -3 -30 -20 -16 -16 -35 -30 -42 -30 -8 1 -6
6 6 15 11 8 16 21 13 30 -8 18 4 20 22 3 10 -11 12 -10 9 1 -7 31 113 33 144
3z m82 -127 c-16 -13 -30 -22 -33 -20 -2 3 8 14 22 26 15 11 28 30 28 42 2 21
2 21 6 -1 3 -17 -4 -30 -23 -47z m-620 -89 c-6 -16 -52 -42 -89 -51 -11 -2
-30 -7 -42 -11 -14 -4 -23 -2 -23 4 0 6 15 14 33 17 35 8 110 45 116 58 6 15
11 0 5 -17z m-278 -59 c11 -11 -19 -8 -36 3 -12 8 -10 9 7 7 12 -2 26 -6 29
-10z m88 -6 c-9 -9 -34 -9 -34 -1 0 5 9 8 20 7 10 -1 17 -3 14 -6z m391 -31
c3 -6 -1 -7 -9 -4 -18 7 -21 14 -7 14 6 0 13 -4 16 -10z m50 -20 c3 -5 1 -10
-4 -10 -6 0 -11 5 -11 10 0 6 2 10 4 10 3 0 8 -4 11 -10z m-9 -76 c41 -42 72
-80 69 -84 -3 -4 6 -19 20 -34 19 -20 33 -26 59 -24 19 1 40 7 48 12 25 20 58
68 58 85 0 18 -45 41 -115 60 -22 6 -51 18 -65 26 l-25 15 25 -5 c14 -3 53 -7
88 -10 35 -2 68 -7 73 -11 6 -3 18 1 28 10 10 9 27 14 42 11 44 -9 93 -7 144
6 80 19 245 20 275 2 50 -32 136 -131 181 -208 36 -62 92 -185 84 -185 -2 0 0
-12 6 -27 22 -56 31 -251 17 -350 -28 -192 -152 -399 -313 -520 -145 -109
-220 -130 -498 -136 -70 -2 -88 1 -91 13 -2 8 -3 195 -2 415 1 235 -2 414 -8
433 -5 18 -35 63 -65 100 -91 109 -116 151 -126 213 -8 47 -7 47 50 -4 33 -30
50 -18 53 38 4 58 -16 115 -64 185 -19 28 -31 50 -28 50 4 0 40 -34 80 -76z
m-1939 -1431 c-4 -3 1 -12 9 -20 8 -8 12 -18 9 -23 -3 -4 2 -13 10 -20 10 -8
15 -30 15 -61 0 -54 -10 -67 -28 -38 -9 14 -9 19 -1 19 8 0 8 5 -1 15 -9 11
-9 15 -1 15 7 0 9 5 5 11 -3 6 0 15 7 20 10 6 9 9 -6 14 -11 4 -27 10 -36 15
-10 5 -21 4 -29 -3 -10 -9 -11 -9 -6 0 3 6 0 13 -6 16 -19 6 16 42 43 44 12 1
19 -1 16 -4z m-61 -75 c4 -13 8 -40 9 -61 l3 -38 -41 5 c-64 9 -72 22 -40 65
43 57 58 63 69 29z m92 -237 c8 -1 12 -10 10 -23 -3 -21 -8 -23 -71 -22 -73 2
-88 7 -67 27 10 10 11 9 5 -3 -7 -12 -4 -11 11 2 19 16 56 26 84 22 8 -1 21
-3 28 -3z m-148 -41 c0 -5 -5 -10 -11 -10 -5 0 -7 5 -4 10 3 6 8 10 11 10 2 0
4 -4 4 -10z m314 -278 c-25 -62 -59 -76 -104 -44 l-25 17 40 5 c34 4 43 11 60
42 14 27 23 34 32 26 10 -8 9 -17 -3 -46z"/>
<path d="M2320 3293 c1 -11 50 -70 50 -60 0 14 -34 67 -42 67 -4 0 -8 -3 -8
-7z"/>
<path d="M2386 3082 c-2 -4 -1 -13 3 -20 4 -8 11 -5 19 8 10 16 10 20 -2 20
-8 0 -17 -4 -20 -8z"/>
<path d="M3137 2420 c8 -30 21 -34 15 -5 -2 14 -8 25 -12 25 -5 0 -6 -9 -3
-20z"/>
<path d="M3155 2370 c-9 -15 -12 -80 -4 -80 4 0 6 -11 3 -25 -2 -14 -1 -25 3
-25 5 0 9 32 11 70 3 68 0 81 -13 60z"/>
<path d="M3146 2213 c-6 -14 -5 -15 5 -6 7 7 10 15 7 18 -3 3 -9 -2 -12 -12z"/>
<path d="M3113 2149 c-12 -21 -18 -39 -14 -39 8 0 44 70 39 76 -2 1 -13 -15
-25 -37z"/>
<path d="M2820 2156 c0 -2 19 -19 42 -38 23 -18 39 -27 35 -20 -11 17 4 15 31
-4 27 -19 83 -31 66 -14 -6 6 -19 12 -30 14 -11 2 -37 13 -57 25 -20 11 -37
18 -37 15 0 -4 -11 1 -25 10 -14 9 -25 14 -25 12z"/>
<path d="M2896 2045 c-9 -26 -7 -32 5 -12 6 10 9 21 6 23 -2 3 -7 -2 -11 -11z"/>
<path d="M2923 2014 c-22 -9 -31 -19 -27 -29 5 -12 10 -11 25 8 17 20 18 20
12 2 -6 -18 -5 -19 12 -5 11 9 16 10 11 3 -4 -8 -2 -13 8 -13 8 0 16 -5 18
-11 2 -7 13 -9 27 -4 18 5 20 9 10 16 -8 4 -16 4 -20 -2 -4 -7 -9 -4 -12 5 -4
9 -1 15 5 13 6 -1 13 4 16 12 2 8 0 11 -6 7 -6 -3 -13 -2 -17 4 -8 13 -22 12
-62 -6z m54 0 c-3 -3 -12 -4 -19 -1 -8 3 -5 6 6 6 11 1 17 -2 13 -5z"/>
<path d="M2726 3836 c10 -8 21 -12 24 -10 5 6 -21 24 -34 24 -6 0 -1 -6 10
-14z"/>
<path d="M2848 3843 c-10 -2 -18 -9 -18 -14 0 -6 8 -5 20 1 11 6 20 13 20 15
0 3 -1 4 -2 4 -2 -1 -11 -3 -20 -6z"/>
<path d="M2910 3834 c0 -7 5 -16 12 -20 6 -4 8 -3 4 4 -3 6 -2 13 3 16 5 4 8
-1 7 -11 -3 -18 -35 -34 -50 -25 -5 2 -7 -1 -4 -9 3 -8 13 -16 23 -17 11 -3
15 0 10 8 -5 8 2 10 26 6 41 -6 54 1 37 22 -11 14 -10 15 7 8 19 -7 19 -6 4
10 -21 21 -79 27 -79 8z m57 -23 c1 -10 -4 -18 -12 -18 -10 0 -11 5 -5 17 5
10 7 20 5 24 -3 3 -2 4 2 1 4 -3 8 -14 10 -24z"/>
<path d="M2795 3821 c-11 -5 -24 -6 -29 -3 -5 3 -6 0 -3 -6 8 -11 44 -5 53 9
6 10 6 10 -21 0z"/>
<path d="M2865 3820 c-5 -5 -20 -18 -32 -29 -12 -10 -24 -16 -28 -13 -4 4 -5
0 -3 -8 2 -8 -3 -14 -9 -12 -7 1 -13 -2 -13 -8 0 -13 13 -13 27 1 13 13 63 19
63 8 0 -4 -4 -11 -10 -14 -5 -3 -10 -11 -10 -17 0 -5 9 0 19 13 14 17 16 28 9
37 -7 8 -14 9 -23 2 -6 -5 -15 -7 -18 -3 -4 3 10 17 31 29 20 13 30 23 22 23
-8 0 -19 -4 -25 -9z"/>
<path d="M2216 3812 c-3 -5 1 -9 9 -9 8 0 12 4 9 9 -3 4 -7 8 -9 8 -2 0 -6 -4
-9 -8z"/>
<path d="M3145 3810 c-3 -6 1 -7 9 -4 18 7 21 14 7 14 -6 0 -13 -4 -16 -10z"/>
<path d="M3004 3799 c-3 -6 -1 -16 5 -22 9 -9 10 -7 5 7 -6 15 -4 17 6 11 9
-5 11 -4 6 3 -9 15 -13 15 -22 1z"/>
<path d="M2456 3768 c-9 -12 -16 -18 -16 -13 0 6 -5 3 -10 -5 -9 -13 -11 -13
-21 0 -9 13 -10 12 -5 -2 6 -21 -17 -35 -59 -34 -23 1 -31 6 -33 24 -2 12 -8
22 -13 22 -5 0 -7 -10 -5 -22 3 -13 5 -31 5 -42 1 -13 4 -16 14 -9 6 6 21 9
32 6 36 -7 78 -4 84 6 4 7 13 3 24 -9 18 -22 22 -35 8 -26 -5 3 -11 -9 -13
-27 -3 -17 -9 -41 -13 -51 -7 -16 -5 -18 10 -12 11 4 16 4 12 -1 -4 -4 -35 -7
-67 -8 -35 0 -59 -4 -58 -10 2 -5 11 -9 21 -9 9 1 17 -2 17 -6 0 -5 11 -7 25
-6 13 2 22 0 20 -4 -3 -4 4 -10 15 -13 11 -3 18 -1 15 3 -3 5 1 13 10 17 20
12 32 56 30 116 -1 26 3 47 7 47 17 0 7 18 -12 23 -18 4 -19 9 -10 32 14 36 6
43 -14 13z m24 -162 c0 -2 -7 -7 -16 -10 -8 -3 -12 -2 -9 4 6 10 25 14 25 6z"/>
<path d="M2106 3771 c-3 -4 1 -17 9 -27 14 -18 14 -18 15 9 0 26 -13 36 -24
18z"/>
<path d="M2935 3741 c-3 -5 -2 -12 3 -15 5 -3 9 1 9 9 0 17 -3 19 -12 6z"/>
<path d="M2970 3726 c0 -19 31 -29 44 -16 8 8 6 9 -6 5 -13 -5 -18 -2 -18 9 0
9 -4 16 -10 16 -5 0 -10 -6 -10 -14z"/>
<path d="M2270 3714 c0 -8 5 -12 10 -9 6 4 8 11 5 16 -9 14 -15 11 -15 -7z"/>
<path d="M2777 3719 c7 -7 15 -10 18 -7 3 3 -2 9 -12 12 -14 6 -15 5 -6 -5z"/>
<path d="M2949 3665 c5 -11 19 -28 31 -38 19 -16 23 -16 48 -3 l27 15 -38 1
c-27 0 -45 7 -58 23 -17 19 -19 19 -10 2z"/>
<path d="M2122 3650 c7 -11 16 -20 21 -20 4 0 3 9 -3 20 -6 11 -15 20 -20 20
-6 0 -5 -9 2 -20z"/>
<path d="M2067 3629 c7 -7 15 -10 18 -7 3 3 -2 9 -12 12 -14 6 -15 5 -6 -5z"/>
<path d="M2876 3588 c5 -8 2 -9 -10 -5 -11 4 -15 3 -10 -4 8 -13 91 -6 106 9
6 6 -4 7 -31 2 -23 -4 -41 -3 -41 1 0 5 -5 9 -11 9 -5 0 -7 -5 -3 -12z"/>
<path d="M2559 3578 c8 -10 9 -18 3 -18 -9 0 -39 -62 -40 -83 0 -5 -11 -17
-23 -28 -12 -10 -19 -19 -14 -19 4 0 2 -7 -5 -15 -11 -14 -7 -19 13 -16 4 0 7
-3 7 -9 0 -5 -6 -10 -12 -10 -17 0 12 -20 30 -20 10 0 9 6 -2 28 -13 25 -13
32 -1 53 22 36 45 88 44 95 0 4 5 10 13 15 10 7 9 12 -6 26 -18 16 -19 16 -7
1z"/>
<path d="M2640 3572 c0 -1 7 -17 16 -33 13 -25 13 -33 2 -46 -12 -15 -11 -15
10 -2 23 14 30 43 12 54 -5 3 -7 12 -4 20 4 9 -1 13 -15 12 -12 -1 -21 -3 -21
-5z"/>
<path d="M2716 3572 c-3 -5 1 -9 9 -9 8 0 12 4 9 9 -3 4 -7 8 -9 8 -2 0 -6 -4
-9 -8z"/>
<path d="M2591 3524 c0 -11 3 -14 6 -6 3 7 2 16 -1 19 -3 4 -6 -2 -5 -13z"/>
<path d="M2380 3513 c0 -3 11 -18 25 -35 14 -16 25 -26 25 -21 0 5 -6 15 -12
21 -10 10 -10 15 1 21 9 6 6 10 -13 13 -14 3 -26 3 -26 1z"/>
<path d="M2757 3501 c-9 -12 -9 -13 1 -7 6 4 30 8 52 8 22 0 40 5 40 10 0 14
-80 5 -93 -11z"/>
<path d="M2868 3503 c6 -2 9 -10 6 -15 -4 -7 -2 -8 4 -4 18 11 14 26 -5 25
-11 0 -13 -3 -5 -6z"/>
<path d="M2585 3470 c3 -5 8 -10 11 -10 2 0 4 5 4 10 0 6 -5 10 -11 10 -5 0
-7 -4 -4 -10z"/>
<path d="M2405 3420 c-3 -11 -11 -20 -16 -20 -5 0 -9 -5 -9 -11 0 -7 11 -9 30
-5 19 3 29 2 25 -4 -3 -6 -4 -10 -1 -10 3 0 10 9 16 19 9 17 7 19 -14 15 -20
-3 -23 -1 -19 16 7 26 -4 26 -12 0z"/>
<path d="M2850 3420 c-8 -5 -12 -12 -9 -15 4 -3 12 1 19 10 14 17 11 19 -10 5z"/>
<path d="M2617 3400 c3 -11 7 -20 9 -20 2 0 4 9 4 20 0 11 -4 20 -9 20 -5 0
-7 -9 -4 -20z"/>
<path d="M2676 3368 c3 -10 -1 -18 -13 -21 -15 -4 -14 -5 4 -6 12 0 24 -7 26
-13 4 -9 6 -8 6 3 1 8 -6 24 -14 35 -11 14 -14 15 -9 2z"/>
<path d="M3161 3336 c-15 -16 -19 -26 -11 -31 12 -7 39 22 40 43 0 17 -3 15
-29 -12z"/>
<path d="M3353 3280 c1 -14 8 -20 24 -20 27 0 41 19 22 31 -25 16 -48 10 -46
-11z"/>
<path d="M3156 3254 c-5 -14 -4 -15 9 -4 17 14 19 20 6 20 -5 0 -12 -7 -15
-16z"/>
<path d="M3253 3117 c0 -8 6 -14 14 -14 9 0 10 4 2 14 -6 7 -12 13 -14 13 -1
0 -2 -6 -2 -13z"/>
<path d="M2175 3100 c3 -5 8 -10 11 -10 2 0 4 5 4 10 0 6 -5 10 -11 10 -5 0
-7 -4 -4 -10z"/>
<path d="M1945 2811 c3 -18 5 -48 5 -65 0 -31 37 -86 58 -86 6 0 -3 13 -19 29
-21 22 -29 40 -30 68 -1 21 -5 49 -10 63 -7 21 -8 20 -4 -9z"/>
<path d="M779 1513 c-13 -16 -12 -17 4 -4 9 7 17 15 17 17 0 8 -8 3 -21 -13z"/>
<path d="M735 1479 c-4 -6 -5 -12 -2 -15 2 -3 7 2 10 11 7 17 1 20 -8 4z"/>
<path d="M460 1406 c0 -2 9 -6 20 -9 11 -3 18 -1 14 4 -5 9 -34 13 -34 5z"/>
<path d="M511 1403 c0 -5 17 -21 37 -37 l37 -30 -34 37 c-36 38 -42 42 -40 30z"/>
<path d="M593 1316 c0 -8 5 -14 11 -13 5 1 11 -4 12 -10 1 -7 2 -14 4 -15 1
-2 3 -20 4 -40 1 -21 6 -41 10 -45 5 -4 6 5 4 20 -4 18 0 34 10 43 13 14 12
16 -7 21 -11 3 -19 9 -16 13 2 4 -4 15 -14 24 -14 13 -18 14 -18 2z"/>
<path d="M552 1054 c-12 -13 -11 -19 3 -40 9 -13 20 -22 25 -19 6 4 10 2 10
-3 0 -5 9 -12 21 -15 17 -5 18 -3 7 11 -11 13 -11 15 4 9 12 -4 15 -2 11 8 -3
8 -8 13 -12 10 -13 -8 -53 27 -47 41 7 18 -5 17 -22 -2z"/>
<path d="M285 1030 c-3 -6 1 -7 9 -4 18 7 21 14 7 14 -6 0 -13 -4 -16 -10z"/>
<path d="M375 1030 c3 -5 14 -10 23 -10 15 0 15 2 2 10 -20 13 -33 13 -25 0z"/>
<path d="M235 1007 c-6 -7 -14 -18 -19 -25 -11 -18 -24 -122 -16 -122 4 0 10
25 13 56 4 36 12 60 23 68 9 7 15 18 13 23 -3 8 -7 7 -14 0z"/>
<path d="M1473 953 c9 -2 17 -9 17 -15 0 -6 3 -8 7 -5 3 4 11 3 18 -1 6 -4 2
1 -8 11 -11 9 -27 16 -36 16 -14 -1 -13 -2 2 -6z"/>
<path d="M1580 784 c0 -15 -9 -42 -21 -60 -11 -19 -17 -34 -13 -34 4 0 -1 -9
-11 -20 -10 -11 -22 -17 -28 -13 -6 3 -7 1 -3 -6 5 -8 15 -6 33 9 21 16 28 18
36 8 6 -9 7 -8 3 5 -3 9 -2 17 3 17 9 0 34 50 28 57 -2 2 -12 -8 -21 -23 -10
-14 -20 -23 -23 -21 -5 5 3 16 35 52 8 9 9 16 1 20 -6 4 -8 13 -5 21 3 8 1 14
-4 14 -6 0 -10 -12 -10 -26z"/>
<path d="M1520 692 c0 -6 -8 -13 -17 -15 -16 -4 -16 -5 -1 -6 18 -1 34 16 24
26 -3 4 -6 1 -6 -5z"/>
<path d="M1644 642 c3 -4 -16 -19 -42 -33 -26 -13 -49 -25 -51 -26 -2 -2 -2
-5 1 -8 8 -9 108 57 102 66 -3 5 -7 9 -10 9 -3 0 -3 -4 0 -8z"/>
<path d="M1503 566 c3 -8 2 -17 -4 -20 -5 -2 -4 -3 3 -1 7 1 12 7 11 13 -2 6
4 9 12 6 8 -4 15 -1 15 5 0 6 -9 11 -21 11 -14 0 -19 -5 -16 -14z"/>
<path d="M205 529 c-4 -6 -5 -12 -2 -15 2 -3 7 2 10 11 7 17 1 20 -8 4z"/>
<path d="M635 530 c-3 -5 -1 -10 4 -10 6 0 11 5 11 10 0 6 -2 10 -4 10 -3 0
-8 -4 -11 -10z"/>
<path d="M187 493 c-2 -5 -7 -21 -11 -38 -4 -16 -9 -38 -12 -47 -3 -11 0 -18
7 -18 7 0 10 3 7 6 -3 3 0 27 7 55 12 45 13 61 2 42z"/>
<path d="M1630 420 c-7 -4 -21 -7 -31 -5 -12 2 -16 -1 -13 -10 4 -10 -1 -12
-18 -8 -13 3 -21 3 -18 0 5 -5 41 -14 78 -18 22 -3 32 3 32 20 0 24 -12 32
-30 21z"/>
<path d="M1517 409 c7 -7 15 -10 18 -7 3 3 -2 9 -12 12 -14 6 -15 5 -6 -5z"/>
<path d="M683 403 c-7 -2 -13 -9 -13 -14 0 -5 6 -8 13 -6 6 1 11 -3 10 -10 -2
-8 4 -10 14 -6 14 6 14 7 -1 19 -13 9 -14 13 -4 17 7 3 9 5 3 5 -5 0 -16 -2
-22 -5z"/>
<path d="M737 403 c-4 -3 -7 -11 -7 -17 0 -6 5 -5 12 2 6 6 9 14 7 17 -3 3 -9
2 -12 -2z"/>
<path d="M170 349 c5 -18 12 -34 16 -38 4 -3 4 2 1 12 -4 10 -7 27 -7 38 0 10
-4 19 -9 19 -6 0 -6 -12 -1 -31z"/>
<path d="M492 362 c-19 -15 -21 -21 -11 -42 13 -26 79 -76 79 -60 0 5 -5 12
-10 15 -6 4 -7 11 -4 17 4 7 2 8 -4 4 -7 -4 -12 -1 -12 9 0 9 -4 13 -10 10 -6
-4 -10 5 -10 20 0 15 4 24 10 20 6 -3 10 1 10 9 0 20 -9 20 -38 -2z"/>
<path d="M582 367 c-8 -10 -6 -13 11 -14 12 0 16 1 9 4 -6 3 -10 9 -6 14 8 14
-2 11 -14 -4z"/>
<path d="M626 358 c2 -4 14 -5 26 -3 32 7 32 13 -1 11 -16 0 -27 -4 -25 -8z"/>
<path d="M753 312 c-14 -9 -24 -70 -12 -78 5 -3 9 -2 8 3 -4 24 2 63 9 59 5
-3 9 1 9 9 0 8 -1 15 -1 15 -1 0 -6 -4 -13 -8z"/>
<path d="M850 312 c0 -5 8 -17 18 -28 32 -37 62 -83 62 -97 0 -8 7 -28 16 -46
9 -17 18 -46 20 -64 9 -63 15 -82 23 -68 9 14 -10 105 -28 139 -10 18 -9 21 4
16 8 -4 15 -10 15 -15 0 -5 20 -34 44 -63 24 -30 49 -63 54 -73 6 -10 13 -16
16 -13 5 5 -48 89 -62 100 -5 3 -21 23 -37 45 -17 22 -38 47 -47 56 -10 9 -18
19 -18 23 0 4 -5 12 -10 19 -39 46 -50 61 -50 69 0 4 -4 8 -10 8 -5 0 -10 -4
-10 -8z"/>
<path d="M653 302 c-29 -4 -29 -13 3 -43 18 -17 23 -19 18 -6 -5 15 3 21 27
19 3 -1 6 6 6 14 0 17 -17 19 -18 2 0 -8 -3 -8 -7 2 -4 9 -17 14 -29 12z"/>
<path d="M564 264 c2 -17 7 -37 12 -45 12 -19 14 -40 4 -34 -5 3 -11 1 -15 -5
-4 -6 -10 -8 -15 -5 -5 3 -19 -4 -30 -15 -11 -11 -34 -23 -50 -27 -17 -3 -30
-8 -30 -12 0 -4 -10 -8 -22 -8 -13 -1 -24 -7 -26 -13 -2 -5 -7 -8 -11 -6 -14
9 -60 -40 -66 -69 l-5 -30 12 32 c7 17 16 34 20 38 10 10 58 13 52 4 -3 -5 0
-9 7 -9 6 0 0 -9 -15 -21 -27 -21 -34 -39 -15 -39 5 0 7 5 4 10 -3 6 3 10 14
10 12 0 21 4 21 9 0 11 38 24 69 23 23 -1 23 -1 5 13 -16 12 -17 16 -4 24 8 5
17 8 21 5 4 -2 10 0 13 4 3 5 19 8 36 7 16 -1 30 2 30 6 0 4 10 6 22 4 12 -3
28 1 37 8 12 10 13 9 6 -2 -6 -11 -4 -13 7 -8 17 6 48 -21 48 -42 0 -7 5 -9
10 -6 6 4 2 19 -11 38 l-21 32 26 -30 c29 -33 41 -31 23 5 -18 35 -54 52 -81
37 -12 -7 -23 -14 -26 -17 -3 -3 -16 -5 -30 -5 -14 1 -30 -3 -37 -7 -6 -5 -14
-5 -18 1 -6 10 12 20 58 35 37 12 34 60 -7 111 l-24 30 2 -31z m-110 -172 c3
-5 -1 -9 -9 -9 -8 0 -12 4 -9 9 3 4 7 8 9 8 2 0 6 -4 9 -8z"/>
<path d="M641 176 c-9 -11 -9 -16 1 -22 7 -4 10 -4 6 1 -4 4 0 14 10 21 9 7
12 14 6 14 -6 0 -17 -6 -23 -14z"/>
<path d="M920 140 c-16 -10 -23 -43 -8 -38 5 2 9 7 8 12 -1 5 4 12 11 17 8 4
11 10 8 13 -2 3 -11 1 -19 -4z"/>
<path d="M1543 74 l-28 -25 33 22 c17 13 32 24 32 26 0 8 -11 1 -37 -23z"/>
<path d="M521 69 c17 -11 39 -12 39 -1 0 4 -12 8 -27 9 -19 1 -22 -1 -12 -8z"/>
<path d="M712 41 c-11 -30 -7 -41 12 -41 7 0 11 16 11 35 0 43 -10 45 -23 6z"/>
<path d="M1596 53 c-6 -14 -5 -15 5 -6 7 7 10 15 7 18 -3 3 -9 -2 -12 -12z"/>
<path d="M360 50 c0 -5 4 -10 9 -10 6 0 13 5 16 10 3 6 -1 10 -9 10 -9 0 -16
-4 -16 -10z"/>
<path d="M545 51 c-17 -7 -16 -9 10 -14 17 -3 35 -1 40 5 7 8 6 9 -2 4 -7 -4
-13 -2 -13 3 0 12 -7 13 -35 2z"/>
<path d="M936 37 c-5 -15 -6 -31 -2 -34 11 -11 18 5 14 34 l-4 28 -8 -28z"/>
<path d="M1549 19 l-24 -20 28 17 c15 9 27 18 27 20 0 8 -8 4 -31 -17z"/>
<path d="M1340 21 c0 -6 4 -13 10 -16 6 -3 7 1 4 9 -7 18 -14 21 -14 7z"/>
<path d="M1415 10 c-3 -5 -1 -10 4 -10 6 0 11 5 11 10 0 6 -2 10 -4 10 -3 0
-8 -4 -11 -10z"/>
</g>
</svg>
